<?xml version="1.0" standalone="no"?>
<!DOCTYPE svg PUBLIC "-//W3C//DTD SVG 20010904//EN"
 "http://www.w3.org/TR/2001/REC-SVG-20010904/DTD/svg10.dtd">
<svg version="1.0" xmlns="http://www.w3.org/2000/svg"
 width="980.000000pt" height="980.000000pt" viewBox="0 0 980.000000 980.000000"
 preserveAspectRatio="xMidYMid meet">

<g transform="translate(0.000000,980.000000) scale(0.100000,-0.100000)"
fill="#000000" stroke="none">
<path d="M0 4900 l0 -4900 4900 0 4900 0 0 4900 0 4900 -4900 0 -4900 0 0
-4900z m4883 3473 c-46 -2 -83 -8 -83 -13 0 -5 -12 -11 -27 -13 -22 -3 -20 -4
10 -6 21 0 36 -5 32 -11 -3 -5 -12 -7 -20 -4 -14 6 -69 -25 -61 -34 3 -3 11 0
18 5 7 6 38 13 68 16 l55 5 -46 -11 c-57 -15 -170 -70 -209 -103 -16 -14 -34
-23 -40 -19 -5 3 -7 0 -4 -8 3 -8 -3 -21 -13 -28 -30 -22 -93 -131 -114 -199
-14 -45 -19 -91 -19 -168 l0 -107 -63 -40 c-342 -220 -580 -555 -686 -968 -52
-202 -67 -498 -36 -697 64 -402 285 -751 673 -1062 l112 -91 0 -861 -1 -861
-23 28 c-61 75 -128 235 -168 397 -14 59 -18 471 -5 523 l7 27 -204 0 -205 0
-42 -72 c-134 -228 -220 -490 -264 -800 -22 -153 -20 -423 4 -545 30 -155 52
-202 125 -271 78 -73 202 -156 319 -213 48 -24 87 -47 87 -51 0 -14 -140 -164
-217 -231 -173 -152 -432 -298 -658 -370 -238 -76 -333 -91 -595 -91 l-215 -1
-3 35 c-3 34 -1 36 55 64 185 90 395 277 512 456 151 229 248 497 303 835 l22
140 4 2445 c2 1804 0 2461 -8 2505 -7 32 -27 89 -45 125 -89 174 -241 267
-445 271 l-90 1 0 39 0 39 1143 -2 c628 -1 1105 -4 1060 -5z m-36 -19 c-3 -3
-12 -4 -19 -1 -8 3 -5 6 6 6 11 1 17 -2 13 -5z m30 -20 c-3 -3 -12 -4 -19 -1
-8 3 -5 6 6 6 11 1 17 -2 13 -5z m46 -21 c-7 -2 -21 -2 -30 0 -10 3 -4 5 12 5
17 0 24 -2 18 -5z m909 -613 c181 -13 528 -46 613 -60 33 -5 170 -10 305 -10
l245 0 -7 -92 c-4 -51 -16 -190 -27 -308 -10 -118 -30 -331 -42 -472 l-23
-258 -31 0 -32 0 -6 78 c-4 42 -16 110 -27 150 -11 40 -17 79 -14 85 4 7 4 9
-1 5 -4 -4 -23 22 -42 58 -70 137 -150 228 -278 314 -129 87 -274 142 -465
176 -130 23 -392 24 -519 1 -327 -60 -576 -226 -686 -458 -48 -103 -65 -177
-65 -289 0 -179 49 -281 209 -440 124 -122 185 -165 801 -564 239 -155 541
-351 670 -437 129 -85 272 -179 317 -208 46 -30 80 -58 76 -64 -3 -5 -1 -7 5
-4 8 6 56 -28 144 -102 9 -8 14 -19 11 -24 -3 -6 -2 -7 4 -4 6 4 42 -26 81
-66 70 -70 125 -137 91 -110 -9 7 -19 10 -23 6 -4 -4 -4 1 -1 12 6 18 5 18
-13 -2 -12 -14 -18 -31 -15 -43 3 -12 0 -20 -7 -20 -9 0 -9 -4 1 -17 10 -11
10 -14 2 -9 -7 4 -13 2 -13 -3 0 -6 5 -11 10 -11 16 0 14 -1561 -2 -1596 -10
-22 -10 -28 0 -32 6 -2 12 -12 12 -22 0 -10 6 -20 13 -23 10 -4 10 -7 0 -18
-18 -18 -16 -32 2 -25 25 9 17 -9 -27 -60 -86 -99 -163 -174 -176 -169 -7 3
-11 1 -8 -4 8 -12 -43 -53 -56 -45 -6 4 -8 3 -4 -4 8 -14 -112 -98 -133 -94
-9 2 -13 0 -8 -4 10 -10 -29 -35 -141 -90 -202 -98 -423 -165 -687 -206 -124
-20 -179 -22 -480 -22 -360 0 -489 11 -751 64 -351 72 -681 216 -836 365 -53
51 -76 140 -85 330 -13 289 67 680 189 925 39 77 46 85 74 88 l31 3 6 -143 c6
-157 25 -271 63 -393 126 -397 434 -703 848 -840 289 -96 611 -109 900 -36
452 115 716 415 717 818 0 98 -3 123 -29 196 -54 158 -177 304 -386 462 -61
45 -453 310 -871 587 -418 278 -806 542 -863 587 -223 180 -401 421 -487 661
-90 252 -97 577 -19 876 96 373 339 682 675 863 196 105 392 160 694 195 71 8
436 5 577 -4z m1338 -3176 c0 -1 -10 -1 -22 0 -19 1 -23 7 -25 34 l-1 34 24
-33 c13 -18 24 -34 24 -35z m8 36 c7 -11 9 -20 4 -20 -4 0 -13 9 -20 20 -7 11
-9 20 -4 20 4 0 13 -9 20 -20z m53 -77 c13 -16 12 -17 -3 -4 -10 7 -18 15 -18
17 0 8 8 3 21 -13z m-20 -40 c-12 -20 -14 -14 -5 12 4 9 9 14 11 11 3 -2 0
-13 -6 -23z m23 -18 c3 -8 1 -15 -4 -15 -6 0 -10 7 -10 15 0 8 2 15 4 15 2 0
6 -7 10 -15z m60 -51 c3 -8 2 -12 -4 -9 -6 3 -10 10 -10 16 0 14 7 11 14 -7z
m-63 -1325 c-5 -13 -10 -19 -10 -12 -1 15 10 45 15 40 3 -2 0 -15 -5 -28z m28
-28 c-6 -18 -14 -30 -17 -27 -2 3 1 19 8 36 7 17 14 29 16 27 2 -2 -1 -18 -7
-36z m-19 -57 c0 -8 -19 -13 -24 -6 -3 5 1 9 9 9 8 0 15 -2 15 -3z m-43 -65
c-12 -14 -24 -25 -26 -23 -3 2 5 14 16 27 11 12 18 29 16 37 -4 13 -3 13 5 1
8 -11 4 -22 -11 -42z m-44 -13 c-3 -4 -9 -2 -14 5 -7 12 -9 12 -9 0 0 -8 -2
-12 -5 -9 -3 3 -3 12 1 21 4 13 9 14 19 4 7 -7 11 -16 8 -21z m-13 -26 c0 -5
-4 -10 -10 -10 -5 0 -10 5 -10 10 0 6 5 10 10 10 6 0 10 -4 10 -10z m10 -35
c-10 -19 -16 -22 -22 -13 -4 7 -8 18 -8 23 0 6 5 3 10 -5 8 -12 11 -11 16 8 4
12 9 20 12 17 3 -3 -1 -16 -8 -30z"/>
<path d="M4721 8324 c0 -11 3 -14 6 -6 3 7 2 16 -1 19 -3 4 -6 -2 -5 -13z"/>
<path d="M4647 8259 c7 -7 15 -10 18 -7 3 3 -2 9 -12 12 -14 6 -15 5 -6 -5z"/>
<path d="M6903 7603 c15 -2 39 -2 55 0 15 2 2 4 -28 4 -30 0 -43 -2 -27 -4z"/>
<path d="M6922 7100 c0 -14 2 -19 5 -12 2 6 2 18 0 25 -3 6 -5 1 -5 -13z"/>
<path d="M6897 7069 c4 -13 8 -18 11 -10 2 7 -1 18 -6 23 -8 8 -9 4 -5 -13z"/>
<path d="M6921 7004 c0 -11 3 -14 6 -6 3 7 2 16 -1 19 -3 4 -6 -2 -5 -13z"/>
<path d="M6857 6531 c-4 -17 -3 -21 5 -13 5 5 8 16 6 23 -3 8 -7 3 -11 -10z"/>
<path d="M6990 4739 c14 -13 33 -32 43 -43 9 -10 17 -14 17 -8 0 6 -19 25 -42
43 -24 18 -32 22 -18 8z"/>
<path d="M7000 4696 c0 -2 7 -7 16 -10 8 -3 12 -2 9 4 -6 10 -25 14 -25 6z"/>
<path d="M7044 4643 c1 -19 5 -28 10 -23 6 6 5 18 -1 32 -10 21 -10 21 -9 -9z"/>
<path d="M7072 4620 c-7 -11 -9 -20 -4 -20 4 0 13 9 20 20 7 11 9 20 4 20 -4
0 -13 -9 -20 -20z"/>
<path d="M7060 2820 c0 -5 4 -10 9 -10 6 0 13 5 16 10 3 6 -1 10 -9 10 -9 0
-16 -4 -16 -10z"/>
<path d="M7040 2789 c0 -5 5 -7 10 -4 6 3 10 8 10 11 0 2 -4 4 -10 4 -5 0 -10
-5 -10 -11z"/>
<path d="M7070 2776 c0 -8 5 -18 10 -21 6 -3 10 3 10 14 0 12 -4 21 -10 21 -5
0 -10 -6 -10 -14z"/>
<path d="M7051 2753 c7 -12 15 -20 18 -17 3 2 -3 12 -13 22 -17 16 -18 16 -5
-5z"/>
<path d="M6976 2672 c-2 -4 4 -8 14 -8 10 0 16 4 14 8 -3 4 -9 8 -14 8 -5 0
-11 -4 -14 -8z"/>
<path d="M7130 4540 c0 -5 5 -10 10 -10 6 0 10 5 10 10 0 6 -4 10 -10 10 -5 0
-10 -4 -10 -10z"/>
</g>
</svg>
